<?xml version="1.0" encoding="UTF-8" standalone="no"?>
<!-- Created with Inkscape (http://www.inkscape.org/) -->

<svg
   width="34.800999mm"
   height="31.221001mm"
   viewBox="0 0 34.800999 31.221001"
   version="1.1"
   id="svg474"
   xmlns="http://www.w3.org/2000/svg"
   xmlns:svg="http://www.w3.org/2000/svg">
  <defs
     id="defs471">
    <linearGradient
       id="paint0_linear_1_4476"
       x1="121.16"
       y1="84.129799"
       x2="102.415"
       y2="38.037201"
       gradientUnits="userSpaceOnUse">
      <stop
         stop-color="#F5AC48"
         id="stop22" />
      <stop
         offset="1"
         stop-color="#D96936"
         id="stop24" />
    </linearGradient>
    <linearGradient
       id="paint1_linear_1_4476"
       x1="41.091202"
       y1="101.886"
       x2="38.534698"
       y2="52.317001"
       gradientUnits="userSpaceOnUse">
      <stop
         stop-color="#6DB4E4"
         id="stop27" />
      <stop
         offset="1"
         stop-color="#125EAB"
         id="stop29" />
    </linearGradient>
    <linearGradient
       id="paint2_linear_1_4476"
       x1="5.9911299"
       y1="29.146099"
       x2="127.026"
       y2="91.448402"
       gradientUnits="userSpaceOnUse">
      <stop
         stop-color="#6DB4E4"
         id="stop32" />
      <stop
         offset="1"
         stop-color="#125EAB"
         id="stop34" />
    </linearGradient>
    <linearGradient
       id="paint3_linear_1_4476"
       x1="120.993"
       y1="3.63187"
       x2="39.3027"
       y2="111.264"
       gradientUnits="userSpaceOnUse">
      <stop
         stop-color="#F5AC48"
         id="stop37" />
      <stop
         offset="1"
         stop-color="#D96936"
         id="stop39" />
    </linearGradient>
  </defs>
  <g
     id="layer1">
    <g
       id="g407"
       transform="matrix(0.26458333,0,0,0.26458333,-2.432642e-4,8.3865693e-5)">
      <path
         d="M 97.3357,79.2264 C 100.7,62.5367 131.09,51.2321 131.512,20.3533 c -0.004,0.3021 -0.029,0.5801 -0.037,0.8756 -7.134,2.851 -13.877,6.8998 -19.938,10.7728 C 104.314,48.8981 87.2101,60.6526 84.5751,76.742 81.5534,95.2124 99.0509,103.704 120.292,102.308 108.234,100.553 94.8074,91.7678 97.3357,79.2264 Z"
         fill="url(#paint0_linear_1_4476)"
         id="path2"
         style="fill:url(#paint0_linear_1_4476)" />
      <path
         d="M 60.4506,87.3858 C 50.1035,73.7419 17.7189,76.3874 3.82129,48.6926 3.95386,48.9572 4.10145,49.1989 4.23811,49.4594 12.0978,49.1532 19.236,49.8985 26.4041,50.8319 40.3223,63.0308 61.4551,66.3344 70.8783,79.7474 81.6955,95.1371 69.6196,110.206 49.8357,117.926 59.9504,111.244 68.2228,97.6349 60.4506,87.3858 Z"
         fill="url(#paint1_linear_1_4476)"
         id="path4"
         style="fill:url(#paint1_linear_1_4476)" />
      <path
         d="M 3.82468,48.6914 C 1.47537,44.3081 -1.99049,35.1898 1.44531,27.2505 68.4872,22.6833 130.14,69.6891 120.288,102.31 97.6315,67.4854 61.8575,51.8633 4.24152,49.4595 4.10349,49.199 3.95724,48.9559 3.82468,48.6914 Z"
         fill="url(#paint2_linear_1_4476)"
         id="path6"
         style="fill:url(#paint2_linear_1_4476)" />
      <path
         d="M 131.508,20.3544 C 131.708,15.4085 130.843,5.71005 124.266,0 61.7446,24.2207 26.6718,92.7197 49.8519,118 55.0548,76.9889 80.5076,47.7605 131.471,21.23 c 0.007,-0.2954 0.032,-0.5747 0.037,-0.8756 z"
         fill="url(#paint3_linear_1_4476)"
         id="path8"
         style="fill:url(#paint3_linear_1_4476)" />
    </g>
  </g>
</svg>
